<svg width="29" height="36" viewBox="0 0 29 36" fill="none" xmlns="http://www.w3.org/2000/svg">
<path d="M19.9611 1.00467C19.4845 1.28322 18.5245 2.06316 17.8199 2.7456C16.6734 3.8598 15.7064 5.16898 14.9466 6.64529C14.7256 7.06311 14.5391 7.41826 14.5322 7.43219C14.5183 7.44612 14.3664 7.18149 14.1937 6.84027C13.1369 4.79294 11.12 3.08683 8.86833 2.33474C8.13617 2.09101 7.36949 1.95174 6.513 1.89603C5.87064 1.86121 5.79467 1.86818 5.5391 2.01441C5.37333 2.10494 5.19375 2.286 5.10396 2.45313C4.95891 2.71079 4.952 2.78739 4.99344 3.42109C5.0487 4.2637 5.18684 4.98096 5.44931 5.78875C5.67724 6.46423 6.10549 7.37648 6.20909 7.37648C6.24363 7.37648 6.47847 7.32077 6.74094 7.2581C7.06557 7.17453 7.51453 7.13971 8.21215 7.13971C9.80079 7.13275 10.6711 7.37648 12.8054 8.40711C14.4009 9.17312 14.4078 9.17312 15.6097 8.58817L16.48 8.16338L16.8391 7.48093C17.7923 5.68429 19.0908 4.18709 20.7071 3.02415C21.3218 2.57847 21.5429 2.27207 21.5429 1.86121C21.5429 1.33893 21.0317 0.830581 20.5068 0.830581C20.3756 0.830581 20.1269 0.907182 19.9611 1.00467Z" fill="white"/>
<path d="M7.51973 9.06861C6.55614 9.22222 5.23465 9.76987 4.2573 10.4177C3.54149 10.8986 2.51596 11.9137 1.99975 12.6618C-0.774003 16.669 -0.650114 23.1741 2.29571 28.8109C3.1767 30.4873 4.13341 31.7829 5.33101 32.9116C6.83145 34.3142 8.33878 35.0488 9.93558 35.1557C11.0506 35.2225 11.8834 35.0154 13.3081 34.3075C14.4369 33.7465 14.5677 33.7531 15.8548 34.3676C17.3139 35.0622 17.9884 35.2225 19.0897 35.1557C20.6658 35.0555 22.18 34.3208 23.6461 32.945C26.3166 30.4539 28.2093 26.5468 28.8701 22.1856C29.0421 21.0769 29.0421 18.686 28.877 17.5907C28.4709 14.9258 27.5073 12.9089 25.9036 11.3661C24.1485 9.67637 21.8221 8.78142 19.8812 9.05525C19.014 9.18214 18.5184 9.34911 17.0592 10.0303C14.7398 11.1123 14.3612 11.119 12.1656 10.0971C11.5049 9.78323 10.7271 9.45597 10.4449 9.36247C9.46067 9.03521 8.38696 8.92835 7.51973 9.06861Z" fill="white"/>
</svg>
